# xmcd CD database file
#
# Track frame offsets:
#	150
#	15585
#	33632
#	52251
#	64190
#	79954
#	94502
#	106577
#	130229
#	151426
#	166765
#	185256
#	196550
#
# Disc length: 2987 seconds
#
# Revision: 0
# Processed by: cddbd v1.5.2PL0 Copyright (c) Steve Scherf et al.
# Submitted via: CDex 1.51
#
DISCID=9d0ba90d
DTITLE=Olivier Caillard - Les p'tits Loups du jazz
DYEAR=1900
DGENRE=Jazz
TTITLE0=Pourquoi
TTITLE1=Chanson des bêtises
TTITLE2=Ecouter bien ces chansons
TTITLE3=La recette
TTITLE4=Le bégonia
TTITLE5=Chewing-gum
TTITLE6=Mamadou, Casimir et Tintin
TTITLE7=Le voyage
TTITLE8=Le blaireau
TTITLE9=Le Martin-pêcheur
TTITLE10=Le pélican
TTITLE11=Mamadou, Casimir et Tintin
TTITLE12=Les bêtises
EXTD=
EXTT0=
EXTT1=
EXTT2=
EXTT3=
EXTT4=
EXTT5=
EXTT6=
EXTT7=
EXTT8=
EXTT9=
EXTT10=
EXTT11=
EXTT12=
PLAYORDER=
